<svg width="20" height="20" viewBox="0 0 20 20" fill="none" xmlns="http://www.w3.org/2000/svg">
<path d="M16.2497 13.75H16.7497C16.7497 13.2719 16.5769 12.8492 16.2391 12.5115C15.9014 12.1738 15.4787 12.0008 15.0005 12H14.9997C14.5212 12 14.0984 12.1735 13.7608 12.5119C13.4238 12.8497 13.2505 13.2717 13.2497 13.7492V13.75C13.2497 14.2285 13.4231 14.6514 13.7612 14.9894C13.9364 15.1646 14.1343 15.2955 14.3509 15.3809C13.9666 15.4388 13.5999 15.5498 13.2527 15.7155C12.7315 15.9643 12.2745 16.2998 11.8848 16.7208C11.8207 16.7891 11.7847 16.8645 11.7741 16.8868L11.7729 16.8891C11.754 16.9286 11.7362 16.9722 11.72 17.0148C11.6871 17.1011 11.649 17.2142 11.6063 17.3495L11.5831 17.423V17.5C11.5831 17.7524 11.6837 17.9745 11.8545 18.1453C12.0253 18.3161 12.2474 18.4167 12.4997 18.4167H17.4997C17.7521 18.4167 17.9742 18.3161 18.145 18.1453C18.3157 17.9745 18.4164 17.7524 18.4164 17.5C18.4164 17.3603 18.3929 17.2201 18.339 17.0852C18.2899 16.9625 18.2208 16.851 18.1402 16.7502L18.1289 16.7361L18.1166 16.7228C17.726 16.301 17.2681 15.9647 16.746 15.7155C16.3988 15.5498 16.0322 15.4388 15.6481 15.3809C15.8651 15.2956 16.0633 15.1649 16.2387 14.9898C16.5775 14.6518 16.7505 14.2283 16.7497 13.7492L16.2497 13.75ZM16.2497 13.75C16.2503 14.0978 16.1289 14.3931 15.8856 14.6359C15.6422 14.8786 15.347 15 14.9997 15M16.2497 13.75C16.2497 13.4028 16.1284 13.1078 15.8856 12.865C15.6428 12.6223 15.3475 12.5006 14.9997 12.5C14.6525 12.5 14.3575 12.6217 14.1147 12.865C13.872 13.1084 13.7503 13.4034 13.7497 13.75C13.7497 14.0973 13.8714 14.3925 14.1147 14.6359C14.3581 14.8792 14.6531 15.0006 14.9997 15M14.9997 15V15.3334V15ZM18.6664 12.0826V12.0834V17.9167C18.6664 18.133 18.5965 18.3009 18.4483 18.4494C18.3007 18.5973 18.1337 18.6671 17.9172 18.6667H17.9164H12.0831C11.8668 18.6667 11.6995 18.5968 11.5516 18.449C11.4039 18.3012 11.3335 18.1335 11.3331 17.9164C11.3331 17.9162 11.3331 17.9161 11.3331 17.9159L11.3331 12.0834C11.3331 11.8674 11.403 11.7002 11.5512 11.5523C11.7 11.4039 11.8678 11.3338 12.0834 11.3334C12.0835 11.3334 12.0837 11.3334 12.0839 11.3334L17.9164 11.3334C18.1324 11.3334 18.3001 11.4033 18.4487 11.5519C18.5973 11.7005 18.6668 11.8677 18.6664 12.0826ZM19.1664 12.0834V17.9167C19.1664 18.2639 19.045 18.5592 18.8022 18.8025C18.5595 19.0459 18.2642 19.1673 17.9164 19.1667H12.0831C11.7359 19.1667 11.4409 19.0453 11.1981 18.8025C10.9553 18.5598 10.8336 18.2645 10.8331 17.9167L19.1664 12.0834ZM7.87022 15.6413L7.8305 15.348L7.55423 15.2417C7.40075 15.1827 7.2579 15.1125 7.12504 15.0315C6.97707 14.9412 6.83171 14.8444 6.68896 14.741L6.46139 14.5761L6.20221 14.6848L4.91054 15.2264L4.91051 15.2264L4.90254 15.2299C4.66904 15.3326 4.45449 15.339 4.2316 15.2588C3.99519 15.1737 3.81558 15.0282 3.68 14.8077L2.70437 13.1056L2.70452 13.1055L2.69767 13.0942C2.57042 12.8852 2.53742 12.6784 2.5911 12.4458C2.64843 12.1974 2.77242 11.997 2.97492 11.8311L4.07178 11.0033L4.30727 10.8256L4.26555 10.5335C4.25471 10.4576 4.24974 10.3877 4.24974 10.3234V9.76004C4.24974 9.69573 4.25471 9.62581 4.26555 9.54992L4.30727 9.25784L4.07178 9.08011L2.97493 8.2523C2.77242 8.08641 2.64843 7.88603 2.5911 7.63761C2.53742 7.40501 2.57042 7.19823 2.69767 6.98918L2.69782 6.98927L2.70437 6.97785L3.68 5.27568C3.81558 5.05524 3.99519 4.90976 4.2316 4.82465C4.45449 4.74441 4.66904 4.75079 4.90254 4.85353L4.90251 4.8536L4.91054 4.85697L6.20221 5.39864L6.46191 5.50754L6.68966 5.34191C6.82857 5.24088 6.9742 5.14587 7.12668 5.05693C7.27545 4.97015 7.42224 4.89692 7.56705 4.83658L7.83145 4.72641L7.87016 4.4426L8.05703 3.0722C8.09571 2.82594 8.20349 2.62403 8.39119 2.45095C8.5684 2.28754 8.7696 2.20837 9.02057 2.20837H10.9789C11.2306 2.20837 11.4321 2.28768 11.6091 2.45095C11.7967 2.62397 11.9042 2.82571 11.9424 3.07182L12.1293 4.4426L12.1693 4.73557L12.4452 4.84171C12.5989 4.90081 12.7423 4.97111 12.8759 5.05234C13.0238 5.1422 13.1682 5.23854 13.3091 5.3414L13.537 5.50777L13.7973 5.39864L15.0889 4.85697L15.089 4.85704L15.0969 4.85353C15.3304 4.75079 15.545 4.74441 15.7679 4.82465C16.0043 4.90976 16.1839 5.05524 16.3195 5.27569L17.2951 6.97785L17.295 6.97793L17.3018 6.98918C17.4291 7.19823 17.4621 7.40501 17.4084 7.63761C17.3514 7.88439 17.2287 8.08377 17.0286 8.24901L16.5201 8.61511L16.5098 8.62252L16.4999 8.63044C16.4842 8.64299 16.472 8.64821 16.4603 8.65118C16.4169 8.66218 16.3759 8.66698 16.3364 8.66672V8.66671H16.3331H13.1747C12.9146 8.06653 12.5084 7.57126 11.9656 7.18635C11.3984 6.78407 10.7516 6.58402 10.0419 6.58337H10.0414C9.10329 6.58337 8.2886 6.92074 7.62535 7.58399C6.96211 8.24723 6.62474 9.06192 6.62474 10C6.62474 10.7059 6.81521 11.3504 7.20153 11.9174C7.57439 12.4646 8.06508 12.8729 8.66641 13.1334V17.625C8.66641 17.6776 8.65344 17.7151 8.6029 17.7633C8.56068 17.8036 8.50482 17.8334 8.39557 17.8334C8.28752 17.8334 8.24382 17.8056 8.21979 17.784C8.17714 17.7457 8.15159 17.7026 8.14018 17.6349L7.87022 15.6413ZM8.70815 13.1333L8.69452 13.1442L8.70815 13.1333L8.72155 13.1226L8.79662 13.0625L8.72156 13.1226L8.70815 13.1333Z" fill="#5B5D58" stroke="#5B5D58"/>
</svg>
