<svg width="20" height="20" viewBox="0 0 20 20" fill="none" xmlns="http://www.w3.org/2000/svg">
<g clip-path="url(#clip0_4279_21800)">
<path fill-rule="evenodd" clip-rule="evenodd" d="M9.16406 1.66669C8.05899 1.66669 6.99919 2.10567 6.21778 2.88708C5.43638 3.66848 4.9974 4.72829 4.9974 5.83335C4.9974 6.93842 5.43638 7.99823 6.21778 8.77963C6.99919 9.56103 8.05899 10 9.16406 10C10.2691 10 11.3289 9.56103 12.1103 8.77963C12.8917 7.99823 13.3307 6.93842 13.3307 5.83335C13.3307 4.72829 12.8917 3.66848 12.1103 2.88708C11.3289 2.10567 10.2691 1.66669 9.16406 1.66669ZM6.66406 5.83335C6.66406 5.50505 6.72873 5.17996 6.85436 4.87665C6.98 4.57333 7.16415 4.29773 7.3963 4.06559C7.62844 3.83344 7.90404 3.64929 8.20735 3.52365C8.51067 3.39802 8.83576 3.33335 9.16406 3.33335C9.49237 3.33335 9.81746 3.39802 10.1208 3.52365C10.4241 3.64929 10.6997 3.83344 10.9318 4.06559C11.164 4.29773 11.3481 4.57333 11.4738 4.87665C11.5994 5.17996 11.6641 5.50505 11.6641 5.83335C11.6641 6.4964 11.4007 7.13228 10.9318 7.60112C10.463 8.06996 9.8271 8.33335 9.16406 8.33335C8.50102 8.33335 7.86514 8.06996 7.3963 7.60112C6.92745 7.13228 6.66406 6.4964 6.66406 5.83335ZM3.33073 15.4167C3.33073 15.2667 3.40573 15.0092 3.6749 14.6675C3.93823 14.3342 4.3449 13.9775 4.88406 13.6492C5.96156 12.9909 7.47823 12.5 9.16406 12.5C9.47656 12.5 9.78406 12.5167 10.0849 12.5492C10.3048 12.5725 10.525 12.5075 10.697 12.3685C10.8689 12.2295 10.9787 12.0278 11.002 11.8079C11.0253 11.588 10.9603 11.3679 10.8213 11.1959C10.6823 11.0239 10.4806 10.9142 10.2607 10.8909C9.89639 10.853 9.53036 10.8338 9.16406 10.8334C7.16823 10.8334 5.35156 11.4117 4.01573 12.2267C3.34906 12.6334 2.77906 13.1134 2.3674 13.635C1.9624 14.1467 1.66406 14.7609 1.66406 15.4167C1.66406 16.1209 2.00656 16.6759 2.4999 17.0717C2.96656 17.4467 3.5824 17.695 4.23656 17.8684C5.55156 18.2159 7.30656 18.3334 9.16406 18.3334L9.7349 18.3292C9.84433 18.3277 9.9524 18.3047 10.0529 18.2614C10.1535 18.2182 10.2445 18.1556 10.3209 18.0772C10.3972 17.9987 10.4573 17.906 10.4979 17.8044C10.5384 17.7027 10.5585 17.594 10.557 17.4846C10.5555 17.3752 10.5325 17.2671 10.4892 17.1666C10.446 17.066 10.3834 16.975 10.3049 16.8986C10.2265 16.8223 10.1338 16.7622 10.0322 16.7216C9.93048 16.6811 9.82183 16.661 9.7124 16.6625L9.16406 16.6667C7.33906 16.6667 5.76156 16.5475 4.66406 16.2567C4.11156 16.1109 3.75073 15.9384 3.54323 15.7717C3.36156 15.6259 3.33073 15.5184 3.33073 15.4167ZM14.9974 11.6667C15.2184 11.6667 15.4304 11.7545 15.5867 11.9108C15.7429 12.067 15.8307 12.279 15.8307 12.5V14.1667H17.4974C17.7184 14.1667 17.9304 14.2545 18.0867 14.4108C18.2429 14.567 18.3307 14.779 18.3307 15C18.3307 15.221 18.2429 15.433 18.0867 15.5893C17.9304 15.7456 17.7184 15.8334 17.4974 15.8334H15.8307V17.5C15.8307 17.721 15.7429 17.933 15.5867 18.0893C15.4304 18.2456 15.2184 18.3334 14.9974 18.3334C14.7764 18.3334 14.5644 18.2456 14.4081 18.0893C14.2519 17.933 14.1641 17.721 14.1641 17.5V15.8334H12.4974C12.2764 15.8334 12.0644 15.7456 11.9081 15.5893C11.7519 15.433 11.6641 15.221 11.6641 15C11.6641 14.779 11.7519 14.567 11.9081 14.4108C12.0644 14.2545 12.2764 14.1667 12.4974 14.1667H14.1641V12.5C14.1641 12.279 14.2519 12.067 14.4081 11.9108C14.5644 11.7545 14.7764 11.6667 14.9974 11.6667Z" fill="#3F423C"/>
</g>
<defs>
<clipPath id="clip0_4279_21800">
<rect width="20" height="20" fill="white"/>
</clipPath>
</defs>
</svg>
