<svg width="20" height="20" viewBox="0 0 20 20" fill="none" xmlns="http://www.w3.org/2000/svg">
<path d="M4.3724 15C3.6541 15 2.96523 14.7147 2.45731 14.2067C1.9494 13.6988 1.66406 13.01 1.66406 12.2917V5.20833C1.66406 4.49004 1.9494 3.80116 2.45731 3.29325C2.96523 2.78534 3.6541 2.5 4.3724 2.5H15.6224C15.9781 2.5 16.3302 2.57005 16.6588 2.70616C16.9874 2.84227 17.286 3.04176 17.5375 3.29325C17.789 3.54474 17.9885 3.84331 18.1246 4.1719C18.2607 4.50049 18.3307 4.85267 18.3307 5.20833V12.2917C18.3307 12.6473 18.2607 12.9995 18.1246 13.3281C17.9885 13.6567 17.789 13.9553 17.5375 14.2067C17.286 14.4582 16.9874 14.6577 16.6588 14.7938C16.3302 14.9299 15.9781 15 15.6224 15H10.8407L6.66406 18.125C6.5093 18.2408 6.32536 18.3113 6.13282 18.3286C5.94028 18.3458 5.74675 18.3091 5.57386 18.2226C5.40098 18.1362 5.25557 18.0033 5.15391 17.8389C5.05225 17.6744 4.99835 17.485 4.99823 17.2917V15H4.3724ZM10.4257 13.75H15.6224C16.0092 13.75 16.3801 13.5964 16.6536 13.3229C16.9271 13.0494 17.0807 12.6784 17.0807 12.2917V5.20833C17.0807 4.82156 16.9271 4.45063 16.6536 4.17714C16.3801 3.90365 16.0092 3.75 15.6224 3.75H4.3724C3.98562 3.75 3.61469 3.90365 3.3412 4.17714C3.06771 4.45063 2.91406 4.82156 2.91406 5.20833V12.2917C2.91406 13.0967 3.5674 13.75 4.3724 13.75H6.24656V16.875L10.4257 13.75Z" fill="#3F423C"/>
</svg>
