<svg width="16" height="16" viewBox="0 0 16 16" fill="none" xmlns="http://www.w3.org/2000/svg">
<path fill-rule="evenodd" clip-rule="evenodd" d="M0.916016 5.97333V10.0267C0.916016 11.9383 0.916016 12.8933 1.51768 13.4875C2.06352 14.0267 2.91268 14.0758 4.51435 14.0808C4.43018 13.5183 4.41268 12.8475 4.40768 12.0575C4.40768 11.9771 4.42353 11.8975 4.45432 11.8232C4.48511 11.749 4.53024 11.6815 4.58713 11.6247C4.64402 11.5679 4.71154 11.5228 4.78585 11.4922C4.86016 11.4615 4.93979 11.4457 5.02018 11.4458C5.10062 11.4448 5.18046 11.4597 5.25515 11.4896C5.32985 11.5194 5.39792 11.5637 5.4555 11.6199C5.51307 11.6761 5.55901 11.7431 5.5907 11.817C5.62239 11.8909 5.6392 11.9704 5.64018 12.0508C5.64518 12.9375 5.66768 13.5658 5.75685 14.0425C5.84268 14.5025 5.97935 14.7675 6.17935 14.9658C6.40685 15.1908 6.72602 15.3367 7.32935 15.4158C7.94935 15.4992 8.77102 15.5 9.95018 15.5H10.771C11.9502 15.5 12.7718 15.4983 13.3927 15.4167C13.9952 15.3367 14.3144 15.19 14.541 14.9658C14.7685 14.7408 14.9169 14.4258 14.9977 13.8308C15.081 13.2192 15.0827 12.4067 15.0827 11.2433V4.75667C15.0827 3.5925 15.081 2.78167 14.9977 2.16917C14.9169 1.57417 14.7685 1.25833 14.5418 1.03417C14.3143 0.809167 13.9952 0.663333 13.3919 0.584167C12.7727 0.5 11.951 0.5 10.7718 0.5H9.95102C8.77185 0.5 7.95018 0.501667 7.32935 0.583333C6.72685 0.663333 6.40768 0.81 6.18018 1.03417C5.98018 1.23167 5.84352 1.4975 5.75768 1.9575C5.66852 2.43417 5.64602 3.0625 5.64102 3.94917C5.64004 4.0296 5.62322 4.10906 5.59153 4.183C5.55985 4.25693 5.5139 4.32391 5.45633 4.38009C5.39876 4.43627 5.33068 4.48056 5.25599 4.51043C5.1813 4.54029 5.10145 4.55516 5.02102 4.55417C4.94062 4.55428 4.86099 4.53854 4.78668 4.50785C4.71238 4.47716 4.64485 4.43212 4.58796 4.37531C4.53108 4.3185 4.48595 4.25103 4.45516 4.17677C4.42436 4.1025 4.40852 4.0229 4.40852 3.9425C4.41352 3.1525 4.43102 2.48167 4.51518 1.91917C2.91352 1.92417 2.06518 1.97333 1.51852 2.5125C0.916849 3.10667 0.916016 4.0625 0.916016 5.97333ZM2.94518 8.43C2.88804 8.37391 2.84264 8.307 2.81166 8.23317C2.78067 8.15934 2.76471 8.08007 2.76471 8C2.76471 7.91993 2.78067 7.84066 2.81166 7.76683C2.84264 7.693 2.88804 7.62609 2.94518 7.57L4.58685 5.94833C4.70312 5.83403 4.85964 5.76997 5.02268 5.76997C5.18573 5.76997 5.34225 5.83403 5.45852 5.94833C5.51566 6.00442 5.56106 6.07133 5.59204 6.14516C5.62303 6.219 5.63899 6.29826 5.63899 6.37833C5.63899 6.4584 5.62303 6.53767 5.59204 6.6115C5.56106 6.68533 5.51566 6.75225 5.45852 6.80833L4.86685 7.39167H10.7718C11.1118 7.39167 11.3885 7.66417 11.3885 8C11.3885 8.33583 11.1118 8.60833 10.7718 8.60833H4.86602L5.45768 9.19167C5.51483 9.24775 5.56022 9.31467 5.59121 9.3885C5.6222 9.46233 5.63816 9.5416 5.63816 9.62167C5.63816 9.70174 5.6222 9.781 5.59121 9.85484C5.56022 9.92867 5.51483 9.99558 5.45768 10.0517C5.34142 10.166 5.1849 10.23 5.02185 10.23C4.8588 10.23 4.70228 10.166 4.58602 10.0517L2.94518 8.43Z" fill="#FA1414"/>
</svg>
