<svg width="24" height="24" viewBox="0 0 24 24" fill="none" xmlns="http://www.w3.org/2000/svg">
<path d="M21.7152 8.80399V11.014C21.7152 11.2129 21.6361 11.4037 21.4955 11.5443C21.3548 11.685 21.1641 11.764 20.9652 11.764C20.7662 11.764 20.5755 11.685 20.4348 11.5443C20.2942 11.4037 20.2152 11.2129 20.2152 11.014V8.80399C20.2215 8.54462 20.1774 8.28649 20.0852 8.04399L12.7852 12.424V20.614C12.9002 20.5802 13.0109 20.5332 13.1152 20.474L15.6452 19.074C15.817 18.9835 16.0172 18.9631 16.2037 19.0172C16.3902 19.0713 16.5484 19.1956 16.6452 19.364C16.7349 19.537 16.7537 19.7381 16.6977 19.9248C16.6417 20.1114 16.5153 20.2689 16.3452 20.364L13.8252 21.764C13.2717 22.0722 12.6487 22.234 12.0152 22.234C11.3816 22.234 10.7586 22.0722 10.2052 21.764L4.20516 18.464C3.62614 18.1356 3.14384 17.6604 2.80679 17.0864C2.46974 16.5123 2.28983 15.8597 2.28516 15.194V8.80399C2.28516 8.13499 2.46516 7.47899 2.80516 6.90399C2.86216 6.80099 2.92916 6.70399 3.00516 6.61399C3.04025 6.56026 3.08044 6.51002 3.12516 6.46399C3.4165 6.0822 3.78435 5.76544 4.20516 5.53399L10.2052 2.22399C10.7612 1.92378 11.3832 1.7666 12.0152 1.7666C12.6471 1.7666 13.2691 1.92378 13.8252 2.22399L19.8252 5.53399C20.2452 5.76499 20.6132 6.08199 20.9052 6.46399L21.0252 6.61399C21.1002 6.70399 21.1672 6.80099 21.2252 6.90399C21.5593 7.48053 21.7288 8.13774 21.7152 8.80399Z" fill="#21241E"/>
<path d="M19.396 17.9442C19.1979 17.9416 19.0087 17.8617 18.8686 17.7217C18.7285 17.5816 18.6486 17.3923 18.646 17.1942V16.8842C18.65 16.5642 18.751 16.2542 18.936 15.9942C19.1193 15.7401 19.3731 15.5454 19.666 15.4342L19.826 15.3442C19.8649 15.3077 19.8955 15.2634 19.916 15.2142C19.926 15.1642 19.926 15.1142 19.916 15.0642C19.9252 15.0113 19.9252 14.9571 19.916 14.9042C19.8769 14.8444 19.8258 14.7933 19.766 14.7542C19.6947 14.7033 19.6131 14.6686 19.527 14.6527C19.4408 14.6367 19.3522 14.6398 19.2674 14.6617C19.1826 14.6836 19.1036 14.7238 19.036 14.7796C18.9684 14.8353 18.9138 14.9051 18.876 14.9842C18.8372 15.0774 18.78 15.1619 18.7078 15.2324C18.6356 15.303 18.5498 15.3583 18.4557 15.3949C18.3616 15.4316 18.2611 15.4488 18.1602 15.4457C18.0592 15.4425 17.96 15.419 17.8683 15.3766C17.7767 15.3341 17.6946 15.2736 17.6269 15.1987C17.5593 15.1237 17.5074 15.0359 17.4745 14.9404C17.4416 14.8449 17.4283 14.7438 17.4355 14.6431C17.4426 14.5423 17.47 14.4441 17.516 14.3542C17.7129 13.936 18.0417 13.5941 18.4518 13.3809C18.8619 13.1677 19.3306 13.0951 19.786 13.1742C20.0936 13.2263 20.3846 13.3495 20.636 13.5342C20.8796 13.7012 21.0807 13.923 21.2231 14.1817C21.3655 14.4405 21.4453 14.729 21.456 15.0242C21.458 15.2912 21.407 15.5562 21.306 15.8042C21.2048 16.048 21.0512 16.2665 20.856 16.4442C20.664 16.6242 20.435 16.7602 20.186 16.8442V17.1942C20.1865 17.2962 20.166 17.3973 20.1259 17.4911C20.0859 17.5849 20.027 17.6696 19.953 17.7398C19.879 17.8101 19.7915 17.8645 19.6957 17.8996C19.5999 17.9347 19.4979 17.9499 19.396 17.9442ZM19.376 19.6442C19.1771 19.6442 18.9863 19.5652 18.8457 19.4245C18.705 19.2839 18.626 19.0931 18.626 18.8942C18.626 18.6953 18.705 18.5045 18.8457 18.3639C18.9863 18.2232 19.1771 18.1442 19.376 18.1442C19.5749 18.1442 19.7657 18.2232 19.9064 18.3639C20.047 18.5045 20.126 18.6953 20.126 18.8942C20.126 19.0931 20.047 19.2839 19.9064 19.4245C19.7657 19.5652 19.5749 19.6442 19.376 19.6442Z" fill="#21241E"/>
</svg>
