<svg width="20" height="20" viewBox="0 0 20 20" fill="none" xmlns="http://www.w3.org/2000/svg">
<path d="M7 16H12.5C12.7833 16 13.046 15.929 13.288 15.787C13.53 15.645 13.7007 15.4493 13.8 15.2L15.9 10.3C15.9333 10.2167 15.9583 10.1333 15.975 10.05C15.9917 9.96667 16 9.88333 16 9.8V9C16 8.71667 15.904 8.479 15.712 8.287C15.52 8.095 15.2827 7.99933 15 8H10.4L11 4.6C11.0333 4.43333 11.025 4.275 10.975 4.125C10.925 3.975 10.8417 3.84167 10.725 3.725L10 3L5.4 8C5.26667 8.13333 5.16667 8.28333 5.1 8.45C5.03333 8.61667 5 8.8 5 9V14C5 14.55 5.196 15.021 5.588 15.413C5.98 15.805 6.45067 16.0007 7 16ZM10 20C8.61667 20 7.31667 19.7373 6.1 19.212C4.88334 18.6867 3.825 17.9743 2.925 17.075C2.025 16.1757 1.31267 15.1173 0.788001 13.9C0.263335 12.6827 0.000667933 11.3827 1.26582e-06 10C-0.000665401 8.61733 0.262001 7.31733 0.788001 6.1C1.314 4.88267 2.02633 3.82433 2.925 2.925C3.82367 2.02567 4.882 1.31333 6.1 0.788C7.318 0.262667 8.618 0 10 0C11.382 0 12.682 0.262667 13.9 0.788C15.118 1.31333 16.1763 2.02567 17.075 2.925C17.9737 3.82433 18.6863 4.88267 19.213 6.1C19.7397 7.31733 20.002 8.61733 20 10C19.998 11.3827 19.7353 12.6827 19.212 13.9C18.6887 15.1173 17.9763 16.1757 17.075 17.075C16.1737 17.9743 15.1153 18.687 13.9 19.213C12.6847 19.739 11.3847 20.0013 10 20Z" fill="black"/>
</svg>
