<svg width="20" height="20" viewBox="0 0 20 20" fill="none" xmlns="http://www.w3.org/2000/svg">
<path d="M10.1751 1.91086C10.3313 2.06713 10.4191 2.27906 10.4191 2.50003C10.4191 2.721 10.3313 2.93292 10.1751 3.08919L9.0976 4.16669H10.4193C14.2959 4.16669 17.5026 7.37336 17.5026 11.25C17.5026 15.1267 14.2959 18.3334 10.4193 18.3334C6.5426 18.3334 3.33594 15.1267 3.33594 11.25C3.33594 11.029 3.42374 10.817 3.58002 10.6608C3.7363 10.5045 3.94826 10.4167 4.16927 10.4167C4.39028 10.4167 4.60225 10.5045 4.75853 10.6608C4.91481 10.817 5.0026 11.029 5.0026 11.25C5.0026 14.2067 7.4626 16.6667 10.4193 16.6667C13.3759 16.6667 15.8359 14.2067 15.8359 11.25C15.8359 8.29336 13.3759 5.83336 10.4193 5.83336H9.0976L10.1751 6.91086C10.3269 7.06803 10.4109 7.27853 10.409 7.49703C10.4071 7.71552 10.3195 7.92453 10.165 8.07904C10.0104 8.23355 9.80144 8.32119 9.58294 8.32309C9.36444 8.32499 9.15394 8.24099 8.99677 8.08919L6.49677 5.58919C6.34055 5.43292 6.25278 5.221 6.25278 5.00003C6.25278 4.77906 6.34055 4.56713 6.49677 4.41086L8.99677 1.91086C9.15304 1.75463 9.36497 1.66687 9.58594 1.66687C9.80691 1.66687 10.0188 1.75463 10.1751 1.91086Z" fill="#3F423C"/>
</svg>
