<svg width="20" height="20" viewBox="0 0 20 20" fill="none" xmlns="http://www.w3.org/2000/svg">
<path fill-rule="evenodd" clip-rule="evenodd" d="M11.8774 4.58333C11.8775 3.95057 12.0991 3.3378 12.5038 2.85139C12.9085 2.36497 13.4708 2.03561 14.093 1.92046C14.7152 1.80532 15.358 1.91167 15.91 2.22106C16.462 2.53044 16.8882 3.02332 17.1147 3.61416C17.3412 4.20499 17.3536 4.85648 17.1499 5.45555C16.9462 6.05462 16.5391 6.56345 15.9994 6.89372C15.4597 7.22399 14.8213 7.35486 14.1952 7.2636C13.5691 7.17235 12.9946 6.86474 12.5716 6.39416L10.3074 7.62916L7.77411 9.07666C8.12829 9.70004 8.22117 10.4383 8.03245 11.13L12.5716 13.6058C13.0157 13.1124 13.6255 12.7993 14.2853 12.7259C14.9451 12.6526 15.6088 12.824 16.1504 13.2078C16.6921 13.5916 17.0739 14.161 17.2234 14.8077C17.3729 15.4545 17.2797 16.1337 16.9614 16.7162C16.6431 17.2988 16.122 17.7441 15.4969 17.9677C14.8719 18.1913 14.1865 18.1776 13.5709 17.9291C12.9554 17.6807 12.4525 17.2148 12.1578 16.6199C11.8631 16.0251 11.7972 15.3428 11.9724 14.7025L7.43328 12.2275C7.08734 12.6123 6.63843 12.8899 6.13965 13.0275C5.64087 13.1651 5.11311 13.157 4.61881 13.0041C4.12451 12.8512 3.68435 12.5598 3.35043 12.1646C3.01651 11.7693 2.8028 11.2867 2.73458 10.7738C2.66636 10.2609 2.74649 9.73921 2.96549 9.27043C3.18449 8.80164 3.53319 8.4054 3.97033 8.12859C4.40748 7.85177 4.91476 7.70597 5.43218 7.70844C5.94959 7.7109 6.45546 7.86153 6.88995 8.1425L9.69828 6.5375L11.9724 5.29666C11.9092 5.06416 11.8773 4.82427 11.8774 4.58333ZM14.5858 3.125C14.199 3.125 13.8281 3.27864 13.5546 3.55213C13.2811 3.82562 13.1274 4.19656 13.1274 4.58333C13.1274 4.9701 13.2811 5.34104 13.5546 5.61453C13.8281 5.88802 14.199 6.04166 14.5858 6.04166C14.9726 6.04166 15.3435 5.88802 15.617 5.61453C15.8905 5.34104 16.0441 4.9701 16.0441 4.58333C16.0441 4.19656 15.8905 3.82562 15.617 3.55213C15.3435 3.27864 14.9726 3.125 14.5858 3.125ZM5.41911 8.95833C5.03234 8.95833 4.66141 9.11197 4.38792 9.38547C4.11443 9.65896 3.96078 10.0299 3.96078 10.4167C3.96078 10.8034 4.11443 11.1744 4.38792 11.4479C4.66141 11.7214 5.03234 11.875 5.41911 11.875C5.80589 11.875 6.17682 11.7214 6.45031 11.4479C6.7238 11.1744 6.87745 10.8034 6.87745 10.4167C6.87745 10.0299 6.7238 9.65896 6.45031 9.38547C6.17682 9.11197 5.80589 8.95833 5.41911 8.95833ZM13.1274 15.4167C13.1274 15.0299 13.2811 14.659 13.5546 14.3855C13.8281 14.112 14.199 13.9583 14.5858 13.9583C14.9726 13.9583 15.3435 14.112 15.617 14.3855C15.8905 14.659 16.0441 15.0299 16.0441 15.4167C16.0441 15.8034 15.8905 16.1744 15.617 16.4479C15.3435 16.7214 14.9726 16.875 14.5858 16.875C14.199 16.875 13.8281 16.7214 13.5546 16.4479C13.2811 16.1744 13.1274 15.8034 13.1274 15.4167Z" fill="#3F423C"/>
</svg>
