<svg width="20" height="20" viewBox="0 0 20 20" fill="none" xmlns="http://www.w3.org/2000/svg">
<g clip-path="url(#clip0_4279_21401)">
<path d="M10.7791 2.39836L16.7632 5.5617C17.6516 6.03086 17.6516 7.30336 16.7632 7.7717L15.7016 8.33336L16.7632 8.89503C17.6516 9.3642 17.6516 10.6367 16.7632 11.105L15.7016 11.6667L16.7632 12.2284C17.6516 12.6975 17.6516 13.97 16.7632 14.4384L10.7791 17.6017C10.539 17.7287 10.2715 17.795 9.9999 17.795C9.7283 17.795 9.46082 17.7287 9.22073 17.6017L3.23656 14.4384C2.34823 13.9692 2.34823 12.6975 3.23656 12.2284L4.29906 11.6667L3.23656 11.105C2.34823 10.6359 2.34823 9.3642 3.23656 8.89503L4.29906 8.33336L3.23656 7.7717C2.34823 7.30253 2.34823 6.03086 3.23656 5.5617L9.22073 2.39836C9.46082 2.27139 9.7283 2.20502 9.9999 2.20502C10.2715 2.20502 10.539 2.27139 10.7791 2.39836ZM13.9182 12.6092L10.7791 14.2684C10.539 14.3953 10.2715 14.4617 9.9999 14.4617C9.7283 14.4617 9.46082 14.3953 9.22073 14.2684L6.08156 12.61L4.7124 13.3334L9.9999 16.1284L15.2882 13.3334L13.9182 12.6092ZM13.9182 9.27586L10.7791 10.9359C10.5614 11.0508 10.3209 11.1161 10.0749 11.1271C9.82896 11.138 9.58363 11.0944 9.35656 10.9992L9.22073 10.9359L6.08156 9.27586L4.7124 10.0009L9.9999 12.7942L15.2882 10L13.9182 9.27586ZM9.9999 3.8717L4.7124 6.6667L9.9999 9.4617L15.2882 6.6667L9.9999 3.8717Z" fill="#3F423C"/>
</g>
<defs>
<clipPath id="clip0_4279_21401">
<rect width="20" height="20" fill="white"/>
</clipPath>
</defs>
</svg>
