<svg width="19" height="18" viewBox="0 0 19 18" fill="none" xmlns="http://www.w3.org/2000/svg">
<path d="M15.75 1.28075e-07C16.612 1.28075e-07 17.4386 0.34241 18.0481 0.951903C18.6576 1.5614 19 2.38805 19 3.25V14.75C19 15.612 18.6576 16.4386 18.0481 17.0481C17.4386 17.6576 16.612 18 15.75 18H4.25C3.38805 18 2.5614 17.6576 1.9519 17.0481C1.34241 16.4386 1 15.612 1 14.75V6.372C1.33001 6.48837 1.68262 6.52617 2.0298 6.48239C2.37697 6.4386 2.70916 6.31444 2.99994 6.11978C3.29072 5.92511 3.5321 5.66531 3.70488 5.36101C3.87765 5.05671 3.97707 4.71631 3.99524 4.36685C4.0134 4.01739 3.9498 3.66851 3.8095 3.34794C3.6692 3.02737 3.45606 2.74395 3.18702 2.52019C2.91798 2.29643 2.60046 2.1385 2.25969 2.05896C1.91892 1.97942 1.5643 1.98046 1.224 2.062C1.46276 1.45402 1.87918 0.932091 2.41896 0.564273C2.95873 0.196455 3.59682 -0.000183202 4.25 1.28075e-07H15.75ZM11.246 10.003H6.748L6.646 10.01C6.46649 10.0347 6.30199 10.1236 6.18291 10.2601C6.06383 10.3967 5.99823 10.5718 5.99823 10.753C5.99823 10.9342 6.06383 11.1093 6.18291 11.2459C6.30199 11.3824 6.46649 11.4713 6.646 11.496L6.748 11.503H11.246L11.348 11.496C11.5362 11.4701 11.7077 11.3737 11.8276 11.2263C11.9475 11.0789 12.007 10.8915 11.994 10.7019C11.9811 10.5123 11.8966 10.3347 11.7578 10.205C11.6189 10.0752 11.436 10.0031 11.246 10.003ZM13.252 6.496H6.748L6.646 6.503C6.46649 6.5277 6.30199 6.61655 6.18291 6.75314C6.06383 6.88972 5.99823 7.0648 5.99823 7.246C5.99823 7.4272 6.06383 7.60228 6.18291 7.73886C6.30199 7.87545 6.46649 7.9643 6.646 7.989L6.748 7.996H13.252L13.354 7.989C13.5422 7.9631 13.7137 7.86671 13.8336 7.7193C13.9535 7.57189 14.013 7.38446 14 7.19488C13.9871 7.0053 13.9026 6.8277 13.7638 6.69797C13.6249 6.56824 13.442 6.49606 13.252 6.496ZM1.75 3C2.08152 3 2.39946 3.1317 2.63388 3.36612C2.8683 3.60054 3 3.91848 3 4.25C3 4.58152 2.8683 4.89946 2.63388 5.13388C2.39946 5.3683 2.08152 5.5 1.75 5.5C1.41848 5.5 1.10054 5.3683 0.866117 5.13388C0.631696 4.89946 0.5 4.58152 0.5 4.25C0.5 3.91848 0.631696 3.60054 0.866117 3.36612C1.10054 3.1317 1.41848 3 1.75 3Z" fill="#5B5D58"/>
</svg>
