<svg width="21" height="21" viewBox="0 0 21 21" fill="none" xmlns="http://www.w3.org/2000/svg">
<path d="M11.409 0.513052C10.5054 0.146691 9.49461 0.146691 8.591 0.513052L6.401 1.40105L15.993 5.13105L19.367 3.82805C19.2282 3.71394 19.0732 3.62125 18.907 3.55305L11.409 0.513052ZM20 5.19105L10.75 8.76505V12.1151C10.8324 12.0901 10.9158 12.0688 11 12.0511V12.0011C11 11.2717 11.2897 10.5722 11.8055 10.0565C12.3212 9.54078 13.0207 9.25105 13.75 9.25105H17.25C17.9773 9.25105 18.6749 9.53913 19.1903 10.0523C19.7057 10.5654 19.9968 11.2618 20 11.9891V5.19105ZM9.25 8.76505V13.4101C9.09 13.7401 9 14.1101 9 14.5011V19.5011C9 19.5444 9.001 19.5871 9.003 19.6291C8.86323 19.5899 8.72569 19.5432 8.591 19.4891L1.093 16.4491C0.770033 16.3182 0.493473 16.094 0.298748 15.805C0.104022 15.516 -2.02553e-06 15.1755 0 14.8271V5.19205L9.25 8.76505ZM0.633 3.82805L10 7.44705L13.917 5.93305L4.374 2.22305L1.093 3.55305C0.922333 3.62239 0.769 3.71405 0.633 3.82805ZM12 13.0001H11.5C11.1022 13.0001 10.7206 13.1581 10.4393 13.4394C10.158 13.7207 10 14.1022 10 14.5001V16.0001H12.5V15.7501C12.5 15.5511 12.579 15.3604 12.7197 15.2197C12.8603 15.0791 13.0511 15.0001 13.25 15.0001C13.4489 15.0001 13.6397 15.0791 13.7803 15.2197C13.921 15.3604 14 15.5511 14 15.7501V16.0001H17V15.7501C17 15.5511 17.079 15.3604 17.2197 15.2197C17.3603 15.0791 17.5511 15.0001 17.75 15.0001C17.9489 15.0001 18.1397 15.0791 18.2803 15.2197C18.421 15.3604 18.5 15.5511 18.5 15.7501V16.0001H21V14.5001C21 14.1022 20.842 13.7207 20.5607 13.4394C20.2794 13.1581 19.8978 13.0001 19.5 13.0001H19V12.0001C19 11.5359 18.8156 11.0908 18.4874 10.7626C18.1592 10.4344 17.7141 10.2501 17.25 10.2501H13.75C13.2859 10.2501 12.8408 10.4344 12.5126 10.7626C12.1844 11.0908 12 11.5359 12 12.0001V13.0001ZM13.5 12.0001C13.5 11.9337 13.5263 11.8702 13.5732 11.8233C13.6201 11.7764 13.6837 11.7501 13.75 11.7501H17.25C17.3163 11.7501 17.3799 11.7764 17.4268 11.8233C17.4737 11.8702 17.5 11.9337 17.5 12.0001V13.0001H13.5V12.0001ZM10 19.5001V17.5001H12.5V18.2501C12.5 18.449 12.579 18.6397 12.7197 18.7804C12.8603 18.921 13.0511 19.0001 13.25 19.0001C13.4489 19.0001 13.6397 18.921 13.7803 18.7804C13.921 18.6397 14 18.449 14 18.2501V17.5001H17V18.2501C17 18.449 17.079 18.6397 17.2197 18.7804C17.3603 18.921 17.5511 19.0001 17.75 19.0001C17.9489 19.0001 18.1397 18.921 18.2803 18.7804C18.421 18.6397 18.5 18.449 18.5 18.2501V17.5001H21V19.5001C21 19.8979 20.842 20.2794 20.5607 20.5607C20.2794 20.842 19.8978 21.0001 19.5 21.0001H11.5C11.1022 21.0001 10.7206 20.842 10.4393 20.5607C10.158 20.2794 10 19.8979 10 19.5001Z" fill="#333530"/>
</svg>
