<svg width="24" height="24" viewBox="0 0 24 24" fill="none" xmlns="http://www.w3.org/2000/svg">
<path d="M7 6.25299V6.99999H4.25C3.65326 6.99999 3.08097 7.23704 2.65901 7.659C2.23705 8.08096 2 8.65325 2 9.24999V11.5H6.5V10.75C6.5 10.5511 6.57902 10.3603 6.71967 10.2197C6.86032 10.079 7.05109 9.99999 7.25 9.99999C7.44891 9.99999 7.63968 10.079 7.78033 10.2197C7.92098 10.3603 8 10.5511 8 10.75V11.5H16V10.75C16 10.5511 16.079 10.3603 16.2197 10.2197C16.3603 10.079 16.5511 9.99999 16.75 9.99999C16.9489 9.99999 17.1397 10.079 17.2803 10.2197C17.421 10.3603 17.5 10.5511 17.5 10.75V11.5H22V9.24999C22 8.65325 21.7629 8.08096 21.341 7.659C20.919 7.23704 20.3467 6.99999 19.75 6.99999H17V6.25299C17 5.65625 16.7629 5.08396 16.341 4.662C15.919 4.24004 15.3467 4.00299 14.75 4.00299H9.25C8.65326 4.00299 8.08097 4.24004 7.65901 4.662C7.23705 5.08396 7 5.65625 7 6.25299ZM9.25 5.50299H14.75C14.9489 5.50299 15.1397 5.58201 15.2803 5.72266C15.421 5.86331 15.5 6.05408 15.5 6.25299V6.99999H8.5V6.25299C8.5 6.05408 8.57902 5.86331 8.71967 5.72266C8.86032 5.58201 9.05109 5.50299 9.25 5.50299ZM22 13H17.5V14.25C17.5 14.4489 17.421 14.6397 17.2803 14.7803C17.1397 14.921 16.9489 15 16.75 15C16.5511 15 16.3603 14.921 16.2197 14.7803C16.079 14.6397 16 14.4489 16 14.25V13H8V14.25C8 14.4489 7.92098 14.6397 7.78033 14.7803C7.63968 14.921 7.44891 15 7.25 15C7.05109 15 6.86032 14.921 6.71967 14.7803C6.57902 14.6397 6.5 14.4489 6.5 14.25V13H2V17.747C2 18.3437 2.23705 18.916 2.65901 19.338C3.08097 19.7599 3.65326 19.997 4.25 19.997H19.75C20.3467 19.997 20.919 19.7599 21.341 19.338C21.7629 18.916 22 18.3437 22 17.747V13Z" fill="#333530"/>
</svg>
